<svg xmlns="http://www.w3.org/2000/svg" xml:space="preserve" width="110mm" height="32mm" style="shape-rendering:geometricPrecision;text-rendering:geometricPrecision;image-rendering:optimizeQuality;fill-rule:evenodd;clip-rule:evenodd" viewBox="0 0 11000 3200"><defs><style>.fil1{fill:#2b2a29;fill-rule:nonzero}</style></defs><g id="Слой_x0020_1"><g id="_1468378709808"><path d="m10001 331 1-1c-7 9-20 16-31 24-50 40-87 75-129 123-10 12-39 52-47 56 0 8-22 35-27 43-10 15-18 29-27 45-18 31-33 63-47 98-36 91-45 135-57 233-7-2-77-80-87-90-62-59-163-139-242-183-3-2-4-3-6-4l-67-35c-29-6-64-29-129-34-55-4-98 3-138 24-77 39-110 116-107 220 3 95 46 170 91 233l102 142c7 9 11 15 17 23 3 4 6 7 9 11 9 11 19 25 28 37 29 43 145 167 182 214 7 3 3 0 4 5 6 4 64 69 73 79 5 4 69 73 77 76 5 11 16 18 28 30 53 54 89 88 133 151 32 48 50 57 53 62l3-1c5 6 7 6 15 7-1-4-2-6-4-9-5-7-2-3-7-6-1-10-77-121-89-138l-82-120c-4-6-7-11-13-16 0-5-82-132-93-147-16-25-33-50-48-72-7-10-49-64-49-70-9-5-58-73-68-87l-9-10c0-1-1-1-2-2-1-9-17-22-23-37-5 0-18-22-23-28-9-13-15-22-22-33-18-24-28-41-44-66-25-39-56-97-73-146-14-42-37-153 19-167 34-9 79 4 110 18 75 33 126 69 189 120 45 36 82 69 118 103 39 36 69 70 106 113 30 35 64 82 110 110 31 19 43 23 63-18 24-49 7-108-21-151-6-9-6-8-2-20 9-28 15-58 21-89 26-133 55-217 122-317 63-96 126-157 216-223 33-24 105-74 159-42 44 27 61 89 68 150 1 63 3 121-1 183-5 61-14 116-20 173-2 7-6 20-2 27-5 6-5 12-6 22-4 29-22 108-29 133-50 175-119 301-195 459-18 37-151 238-181 286-9 14-68 104-74 109-10 20-27 40-39 57-5 7-15 23-25 36s-18 24-28 37c-22 30-63 79-73 90-29 32-62 64-87 110 3 4-1 1 6 3 2-9 37-43 43-49l111-120c15-16 26-31 40-47l27-30c35-45 156-190 165-201 41-51 86-112 123-167 5-7 32-54 40-57 0-10 2-8 9-20l33-56c83-144 167-336 210-498 7-27 20-69 22-97h-1c13-19 29-183 30-197 3-35 5-68 5-106 0-12 0-91-3-104 0-1 0-1-1-2l-1-3c2-18-10-63-15-79-4-12-7-22-13-34-3-7-14-24-15-31 0-1-1-1-1-2-7-6-8-10-14-18-14-18-31-34-52-47-135-82-270 44-292 52z" style="fill:#2b2a29"/><path d="m1287 444 698 1429h-65l-264-532H910l-260 532h-58l695-1429zm-5 128-348 715h699l-351-715zm930 1301h-60v-837h60v169c63-126 171-190 323-190 104 0 192 36 262 108 71 72 106 160 106 263v487h-59v-487c0-86-30-160-90-224-61-63-133-95-219-95-85 0-161 32-226 95-65 64-97 138-97 224v487zm1587-837h60v811c0 111-38 205-115 282-77 76-171 115-283 115-134 0-240-52-318-155l4-93c35 60 80 107 136 143 57 35 116 53 178 53 92 0 171-33 238-100 67-66 100-146 100-239v-141c-60 121-166 182-317 182-103 0-191-36-265-109-73-73-109-160-109-261v-488h59v488c0 85 32 160 94 223 63 63 137 95 222 95 86 0 160-32 223-95 62-63 93-138 93-223v-488zm971 858h-20c-128 0-247-34-357-101-111-67-198-156-262-267-63-111-95-229-95-354 0-198 71-367 213-509 143-143 313-214 512-214 132 0 258 35 377 105v69c-116-80-242-120-377-120-182 0-339 66-469 197s-195 288-195 471 65 340 195 472c130 131 287 197 469 197 135 0 261-40 377-119v69c-113 69-235 104-368 104zm909-56v52c-88 0-163-29-225-88s-93-135-93-226V477h60v1099c0 75 25 138 75 188 50 49 111 74 183 74zm493 58h-17c-117 0-220-45-307-133-88-89-131-192-131-310s43-220 130-306c86-87 194-130 321-130 128 0 238 51 330 153l-584 577c80 64 158 97 232 97s141-17 200-51c59-35 108-80 146-137v95c-88 96-195 145-320 145zm-19-827c-99 0-186 38-263 115-76 76-114 164-114 263s33 186 99 261l541-538c-77-67-165-101-263-101zm1356-33v837h-59v-208c-35 71-87 127-157 168-69 40-143 61-223 61-121 0-225-43-312-129-87-87-130-190-130-310 0-121 43-224 130-310 87-87 191-130 312-130 80 0 155 21 228 64 73 42 123 98 152 167v-210h59zm-822 421c0 104 38 194 115 270 76 77 166 115 271 115s194-38 269-115c74-76 111-167 111-271 0-105-37-196-112-273s-165-116-269-116-194 39-270 117c-77 77-115 168-115 273zm1105 416h-60v-837h60v169c63-126 171-190 323-190 104 0 192 36 262 108 71 72 106 160 106 263v487h-59v-487c0-86-30-160-90-224-60-63-133-95-219-95-85 0-161 32-226 95-65 64-97 138-97 224v487zM592 2532h211v268h-33v-239H624v239h-32v-268zm289 417v-417h30v60c7-17 19-33 37-46 17-13 39-19 66-19 18 0 34 3 50 9 16 7 30 16 41 28 12 12 22 26 29 44 7 17 10 36 10 57 0 23-4 43-11 60s-17 31-29 43-25 21-41 28c-15 6-31 9-48 9-24 0-45-6-63-18-18-13-31-28-39-47v209h-32zm131-393c-16 0-30 3-42 8-13 6-23 14-31 24-8 9-15 20-19 32s-7 25-7 38v14c0 12 3 25 7 37 4 13 11 24 19 34 9 9 19 17 32 23 12 7 27 10 43 10 30 0 53-10 71-31 17-20 26-47 26-80 0-35-9-62-27-81-19-19-43-28-72-28zm319 249c-19 0-37-4-53-11-17-7-31-16-43-29s-22-28-29-45c-6-17-10-36-10-56s4-38 10-55c7-17 17-31 29-44 12-12 26-21 43-28 16-7 34-10 53-10s36 3 52 10 30 16 42 28c12 13 22 27 29 44 6 17 10 35 10 55s-4 39-10 56c-7 17-17 32-29 45s-26 22-42 29-34 11-52 11zm0-29c14 0 28-3 41-8 12-6 23-13 32-23s16-22 21-36c5-13 8-28 8-45 0-16-3-31-8-44s-12-24-21-34-20-17-32-22c-13-6-27-8-41-8-15 0-29 2-42 8-12 5-23 12-32 22s-16 21-22 34c-5 13-7 28-7 44 0 17 2 32 7 45 6 14 13 26 22 36s20 17 33 23c12 5 26 8 41 8zm318 28c-18 0-36-3-52-10s-30-16-42-28c-12-13-22-27-29-44s-10-36-10-56c0-21 3-39 11-57 7-17 17-31 29-44 12-12 26-21 42-28s33-10 51-10h6v-161h31v161h6c19 0 36 3 53 10 16 7 30 16 42 28 12 13 21 27 28 44s11 36 11 56c0 21-4 39-11 57-7 17-17 31-29 44-12 12-27 21-43 28s-33 10-51 10h-6v145h-31v-145h-6zm37-248v219h6c15 0 28-3 41-8 12-5 23-13 32-23s16-21 21-35c6-13 8-28 8-44s-2-31-8-44c-5-14-12-25-21-35-9-9-20-17-32-22-13-6-26-8-41-8h-6zm-139 111c0 16 3 30 8 44 5 13 13 24 22 34 9 9 19 17 32 22 12 5 26 8 40 8h6v-219h-6c-14 0-28 2-40 8-13 5-23 13-32 23s-17 21-22 35-8 29-8 45zm469 138c-19 0-38-3-54-10-17-7-32-16-44-29-12-12-22-27-29-44-8-17-11-37-11-58 0-22 4-41 11-58 8-17 18-31 31-43 12-12 27-21 43-27s32-9 50-9c21 0 39 3 55 11s30 18 40 30c11 12 19 25 24 40 6 15 8 30 8 46v16h-231c1 17 4 31 10 44s14 24 24 33 21 16 34 21c12 5 26 8 40 8 20 0 37-4 53-12 16-7 29-17 40-30l21 19c-15 18-33 31-52 40-20 8-41 12-63 12zm-4-249c-12 0-24 2-35 6s-21 10-30 18c-10 7-17 16-23 27s-10 23-13 36h197c-1-12-4-24-9-34-5-11-12-20-20-28s-18-14-29-18c-11-5-24-7-38-7zm320 249c-22 0-41-4-58-11-17-8-32-18-44-31-12-12-21-27-28-45-6-17-9-35-9-54 0-22 3-41 10-58 8-17 18-31 30-43 13-12 28-21 44-27 17-6 35-9 54-9 20 0 39 3 57 10 18 6 33 16 46 29l-18 24c-11-11-23-19-38-25s-30-9-47-9c-14 0-28 2-41 7s-24 12-34 21-17 20-23 33c-6 14-9 29-9 47 0 17 3 32 9 45 5 14 13 26 23 36s21 17 34 23c14 5 28 8 44 8 18 0 34-4 49-10 14-7 26-15 34-26l20 20c-11 12-25 23-43 32-17 8-38 13-62 13zm290 0c-22 0-41-4-58-11-17-8-32-18-44-31-12-12-21-27-28-45-6-17-9-35-9-54 0-22 3-41 10-58 8-17 18-31 30-43 13-12 28-21 44-27 17-6 35-9 54-9 20 0 39 3 57 10 18 6 33 16 46 29l-18 24c-11-11-23-19-38-25s-30-9-47-9c-14 0-28 2-41 7s-24 12-34 21-17 20-23 33c-6 14-9 29-9 47 0 17 3 32 9 45 5 14 13 26 23 36s21 17 34 23c14 5 28 8 44 8 18 0 34-4 49-10 14-7 26-15 34-26l20 20c-11 12-25 23-43 32-17 8-38 13-62 13zm167-273h31v204l178-204h12v268h-32v-205l-178 205h-11v-268zm421 273c-19 0-37-4-53-11s-31-16-43-29-21-28-28-45-10-36-10-56 3-38 10-55 16-31 28-44c12-12 27-21 43-28s34-10 53-10 37 3 53 10 30 16 42 28c12 13 21 27 28 44s10 35 10 55-3 39-10 56-16 32-28 45-26 22-43 29c-16 7-33 11-52 11zm0-29c15 0 29-3 41-8 12-6 23-13 32-23s16-22 22-36c5-13 7-28 7-45 0-16-2-31-7-44-6-13-13-24-22-34s-20-17-32-22c-12-6-26-8-41-8s-29 2-41 8c-13 5-24 12-33 22s-16 21-21 34-8 28-8 44c0 17 3 32 8 45 5 14 12 26 22 36 9 10 20 17 32 23 13 5 26 8 41 8zm389-107h-158v131h-32v-268h32v108h158v-108h32v268h-32v-131zm226 136c-16 0-32-3-48-9-15-7-29-16-41-28s-21-26-29-43c-7-17-11-37-11-60 0-21 4-40 11-57 7-18 16-32 28-44s26-21 41-28c16-6 33-9 51-9 25 0 47 6 64 18s30 27 38 44v-57h30v268h-30v-63c-8 20-21 36-39 49-18 12-39 19-65 19zm2-29c16 0 31-3 43-10 13-6 23-15 32-25 8-10 15-22 19-35s7-25 7-38v-7c0-13-2-26-7-38-4-13-10-24-18-34s-19-18-31-24c-13-6-27-9-44-9-29 0-53 9-71 28-19 19-28 46-28 81 0 33 9 60 27 80 17 21 41 31 71 31zm190 27c-3 0-6 0-8-1-2 0-4 0-5-1v-33c2 1 5 1 9 1 5 0 10-2 15-5 5-4 10-11 15-22 4-11 7-27 10-48s4-49 4-84v-78h173v268h-32v-239h-111v66c0 34-1 62-5 84-4 23-9 41-15 54-7 14-14 24-23 29-9 6-18 9-27 9zm292-271h31v96h62c37 0 64 6 82 20s27 35 27 65-9 52-28 66-48 21-87 21h-87v-268zm82 239c30 0 53-4 67-13 15-8 22-23 22-45 0-21-6-35-20-44-14-8-35-12-63-12h-57v114h51zm365-102h-159v131h-31v-268h31v108h159v-108h32v268h-32v-131zm226 136c-16 0-32-3-48-9-15-7-29-16-41-28s-22-26-29-43-11-37-11-60c0-21 4-40 11-57 7-18 16-32 28-44s26-21 41-28c16-6 33-9 50-9 26 0 48 6 65 18s30 27 38 44v-57h30v268h-30v-63c-8 20-21 36-39 49-18 12-40 19-65 19zm1-29c17 0 32-3 44-10 13-6 23-15 32-25 8-10 15-22 19-35s6-25 6-38v-7c0-13-2-26-6-38-4-13-10-24-18-34-9-10-19-18-31-24-13-6-27-9-44-9-29 0-53 9-71 28-19 19-28 46-28 81 0 33 9 60 27 80 17 21 41 31 70 31zm198 20 83-100c-22-4-39-13-52-26-12-12-18-31-18-54 0-30 10-51 30-65 19-13 48-19 85-19h88v268h-32v-101h-64l-83 101h-37v-4zm184-126v-109h-53c-28 0-50 4-65 11-14 8-22 22-21 44 0 20 6 34 20 42 13 8 33 12 60 12h59zm293 274 58-151-111-259v-2h34l94 218 84-218h32v2l-160 415h-31v-5zm367-139c-43 0-77-15-100-46-24-30-36-79-36-147 0-44 5-81 14-110s21-51 35-68c15-17 32-29 51-36s39-12 59-14 35-5 46-9c11-3 21-9 29-17l22 19c-4 7-10 12-17 16s-15 7-23 10c-9 3-18 5-27 7-9 1-18 2-26 3-18 2-35 6-50 11s-28 14-40 26c-11 13-20 31-28 54-7 22-12 52-14 89 12-23 28-39 48-50 19-10 41-15 65-15 19 0 37 3 53 10 15 7 28 17 39 30 11 12 19 27 25 43 6 17 8 35 8 54 0 21-3 39-10 57-6 17-15 31-27 44-12 12-26 22-42 29-17 6-34 10-54 10zm1-29c29 0 53-10 72-30 18-19 28-46 28-81 0-15-3-30-7-43s-11-24-19-34c-8-9-18-17-31-23-12-5-25-8-41-8-12 0-24 2-36 6-12 3-23 9-33 18-10 8-17 19-23 33s-9 30-9 50c0 35 9 62 27 82s42 30 72 30zm319 29c-19 0-37-4-53-11s-31-16-43-29-22-28-28-45c-7-17-11-36-11-56s4-38 11-55c6-17 16-31 28-44 12-12 27-21 43-28s34-10 53-10 36 3 53 10c16 7 30 16 42 28 12 13 21 27 28 44s10 35 10 55-3 39-10 56-16 32-28 45-26 22-43 29c-16 7-34 11-52 11zm0-29c15 0 28-3 41-8 12-6 23-13 32-23s16-22 21-36c6-13 8-28 8-45 0-16-2-31-8-44-5-13-12-24-21-34s-20-17-32-22c-13-6-26-8-41-8s-29 2-41 8c-13 5-24 12-33 22s-16 21-21 34-8 28-8 44c0 17 3 32 8 45 5 14 12 26 21 36 10 10 21 17 33 23 12 5 26 8 41 8zm199 173v-417h30v60c7-17 19-33 36-46s40-19 66-19c18 0 35 3 51 9 15 7 29 16 41 28s21 26 28 44c7 17 11 36 11 57 0 23-4 43-11 60-8 17-17 31-29 43s-26 21-41 28c-16 6-32 9-48 9-25 0-46-6-64-18-17-13-30-28-39-47v209h-31zm131-393c-17 0-31 3-43 8-12 6-22 14-31 24-8 9-14 20-18 32-5 12-7 25-8 38v14c1 12 3 25 8 37 4 13 10 24 19 34 8 9 19 17 31 23 13 7 27 10 43 10 30 0 54-10 71-31 18-20 27-47 27-80 0-35-10-62-28-81s-42-28-71-28zm197-24h32v112h26l105-112h35v4l-112 119 138 141v4h-38l-128-128h-26v128h-32v-268zm368 273c-17 0-33-3-48-9-16-7-30-16-42-28s-21-26-28-43c-8-17-11-37-11-60 0-21 3-40 10-57 7-18 17-32 29-44 11-12 25-21 41-28 15-6 32-9 50-9 26 0 47 6 64 18 18 12 31 27 39 44v-57h30v268h-30v-63c-8 20-22 36-40 49-18 12-39 19-64 19zm1-29c16 0 31-3 44-10 12-6 23-15 31-25 9-10 15-22 19-35 5-13 7-25 7-38v-7c0-13-2-26-6-38-4-13-11-24-19-34s-18-18-31-24c-12-6-27-9-43-9-30 0-53 9-72 28-18 19-27 46-27 81 0 33 8 60 26 80 18 21 41 31 71 31zm373-244h100c28 0 49 5 63 17 13 12 20 27 20 46 0 14-4 25-10 35-7 10-16 17-29 21 19 4 34 11 44 23 11 11 16 26 16 47 0 25-9 45-27 58-17 14-43 21-77 21h-100v-268zm32 136v103h62c28 0 48-5 60-14 12-8 18-21 18-39s-6-30-19-38c-12-8-32-12-58-12h-63zm0-107v79h62c17 0 31-3 42-9 10-6 16-16 16-30 0-27-20-40-60-40h-60zm460-199h12l152 374 150-374h13l63 438h-32l-49-348-142 353h-7l-142-348-46 343h-32l60-438zm581 443c-19 0-36-4-53-11-16-7-30-16-43-29-12-13-21-28-28-45s-10-36-10-56 3-38 10-55 16-31 28-44c13-12 27-21 43-28 17-7 34-10 53-10s37 3 53 10 30 16 42 28c12 13 21 27 28 44s10 35 10 55-3 39-10 56-16 32-28 45-26 22-42 29c-17 7-34 11-53 11zm0-29c15 0 29-3 41-8 12-6 23-13 32-23s17-22 22-36c5-13 7-28 7-45 0-16-2-31-7-44s-13-24-22-34-20-17-32-22c-12-6-26-8-41-8s-28 2-41 8c-13 5-23 12-33 22-9 10-16 21-21 34s-8 28-8 44c0 17 3 32 8 45 5 14 12 26 22 36 9 10 20 17 32 23 13 5 26 8 41 8zm325 29c-22 0-41-4-58-11-17-8-32-18-44-31-12-12-22-27-28-45-6-17-10-35-10-54 0-22 4-41 11-58 8-17 17-31 30-43s27-21 44-27 35-9 54-9c20 0 39 3 57 10 17 6 33 16 46 29l-18 24c-11-11-23-19-38-25s-30-9-47-9c-14 0-28 2-41 7s-24 12-34 21-17 20-23 33c-6 14-9 29-9 47 0 17 3 32 8 45 6 14 14 26 24 36s21 17 34 23c14 5 28 8 44 8 18 0 34-4 49-10 14-7 26-15 34-26l20 20c-11 12-25 23-43 32-17 8-38 13-62 13zm167-273h31v112h27l104-112h35v4l-112 119 138 141v4h-38l-128-128h-26v128h-31v-268zm266 0h100c28 0 49 5 63 17 13 12 20 27 20 46 0 14-3 25-10 35s-16 17-29 21c19 4 34 11 44 23 11 11 17 26 17 47 0 25-9 45-27 58-18 14-44 21-78 21h-100v-268zm32 136v103h62c28 0 48-5 60-14 12-8 18-21 18-39s-6-30-19-38c-12-8-32-12-58-12h-63zm0-107v79h62c17 0 32-3 42-9 11-6 16-16 16-30 0-27-20-40-60-40h-60zM9835 2805c-20 0-38-3-54-10-17-7-32-16-44-29-13-12-22-27-30-44-7-17-10-37-10-58 0-22 3-41 11-58s18-31 30-43c13-12 27-21 43-27 17-6 33-9 51-9 21 0 39 3 55 11s29 18 40 30 19 25 24 40c6 15 8 30 8 46v16h-231c1 17 4 31 10 44s14 24 24 33 21 16 33 21c13 5 27 8 41 8 19 0 37-4 53-12 15-7 29-17 39-30l21 19c-14 18-32 31-52 40-19 8-40 12-62 12zm-4-249c-12 0-24 2-35 6s-22 10-31 18c-9 7-16 16-22 27s-10 23-13 36h197c-1-12-4-24-9-34-5-11-12-20-20-28s-18-14-29-18c-11-5-24-7-38-7z" class="fil1"/></g></g></svg>