<svg xmlns="http://www.w3.org/2000/svg" xml:space="preserve" width="215mm" height="65mm" style="shape-rendering:geometricPrecision;text-rendering:geometricPrecision;image-rendering:optimizeQuality;fill-rule:evenodd;clip-rule:evenodd" viewBox="0 0 21500 6500"><defs><style>.str0{stroke:#000;stroke-width:7.62;stroke-miterlimit:22.9256}.fil1{fill:#2b2a29}.fil4{fill:#da0b1d}.fil3{fill:#f24a0c}.fil5{fill:#f2a20d}.fil2{fill:#f2b80c}.fil0{fill:#2b2a29;fill-rule:nonzero}</style></defs><g id="Слой_x0020_1"><g id="_2922168566288"><path d="M6199.26 2651.73c-19.92 0-36.99-7.11-51.22-21.33-14.24-14.23-21.35-31.77-21.35-52.63V1540.91h147.99v1036.86c0 20.86-7.12 38.4-21.34 52.63-14.24 14.22-32.26 21.33-54.08 21.33zm-379.93-974.28c-20.87 0-37.47-6.63-49.8-19.91-12.33-13.27-18.5-29.39-18.5-48.36 0-20.86 6.17-37.45 18.5-49.78 12.33-12.32 28.93-18.49 49.8-18.49h761.29c20.87 0 37.46 6.17 49.8 18.49 12.32 12.33 18.5 28.92 18.5 49.78 0 18.97-6.18 35.09-18.5 48.36-12.34 13.28-28.93 19.91-49.8 19.91h-761.29zm1051.56 1307.1c-20.87 0-38.18-6.88-51.94-20.63-13.75-13.74-20.63-31.05-20.63-51.91v-648.57c.95-74.91 18.73-142.46 53.36-202.68 34.62-60.21 81.35-107.38 140.16-141.51 58.82-34.14 124.75-51.21 197.79-51.21 74.95 0 141.83 17.31 200.63 51.92 58.82 34.61 105.54 81.54 140.17 140.8 34.62 59.27 51.93 126.83 51.93 202.68 0 74.91-15.89 142.23-47.66 201.97-31.79 59.74-75.19 106.67-130.2 140.81-55.03 34.13-117.16 51.2-186.4 51.2-55.98 0-107.44-11.62-154.39-34.85-46.97-23.23-87.04-54.76-120.25-94.58v384.02c0 20.86-6.87 38.17-20.63 51.91-13.76 13.75-31.07 20.63-51.94 20.63zm318.74-455.14c48.38 0 91.54-11.61 129.49-34.84 37.95-23.24 68.06-55 90.35-95.3 22.3-40.3 33.45-85.57 33.45-135.83 0-51.2-11.15-96.95-33.45-137.25-22.29-40.3-52.4-72.06-90.35-95.29-37.95-23.23-81.11-34.85-129.49-34.85-47.43 0-90.59 11.62-129.49 34.85-38.89 23.23-69.01 54.75-90.36 94.58-21.34 39.82-32.01 85.81-32.01 137.96 0 50.26 10.67 95.77 32.01 136.54 21.35 40.78 51.24 72.54 89.65 95.3 38.42 22.75 81.82 34.13 130.2 34.13zm974.72 128.01c-78.73 0-148.69-16.83-209.88-50.49-61.19-33.66-109.09-80.13-143.72-139.39-34.62-59.26-51.94-127.29-51.94-204.1 0-77.75 16.37-146.26 49.09-205.52 32.73-59.26 78.03-105.72 135.89-139.39 57.87-33.66 124.28-50.49 199.21-50.49 74 0 137.56 16.36 190.68 49.07 53.13 32.71 93.68 77.75 121.67 135.12 27.98 57.37 41.98 123.5 41.98 198.41 0 18.02-6.18 32.95-18.5 44.8-12.34 11.86-28 17.78-46.96 17.78h-573.45v-113.78h569.17l-58.33 39.82c-.95-47.41-10.44-89.84-28.47-127.29-18.01-37.46-43.63-67.09-76.83-88.9-33.21-21.81-73.52-32.71-120.96-32.71-54.06 0-100.31 11.85-138.73 35.56-38.42 23.7-67.59 56.18-87.51 97.43-19.92 41.24-29.88 87.94-29.88 140.09 0 52.15 11.85 98.61 35.57 139.39 23.72 40.77 56.44 73.01 98.19 96.71 41.74 23.71 89.64 35.56 143.71 35.56 29.41 0 59.53-5.45 90.36-16.36 30.83-10.9 55.73-23.46 74.7-37.69 14.24-10.43 29.65-15.88 46.25-16.35 16.6-.48 31.06 4.5 43.4 14.93 16.13 14.22 24.66 29.87 25.61 46.94.95 17.07-6.64 31.76-22.77 44.09-32.24 25.6-72.33 46.46-120.23 62.58-47.9 16.12-93.68 24.18-137.32 24.18zm1172.51-5.69c-20.87 0-38.18-6.87-51.94-20.62-13.75-13.75-20.63-31.06-20.63-51.92v-632.92c0-21.81 6.88-39.35 20.63-52.63 13.76-13.27 31.07-19.91 51.94-19.91 21.82 0 38.89 6.64 51.23 19.91 12.33 13.28 18.5 30.82 18.5 52.63v632.92c0 20.86-6.17 38.17-18.5 51.92-12.34 13.75-29.41 20.62-51.23 20.62zm-584.83 0c-20.87 0-37.71-6.87-50.51-20.62-12.81-13.75-19.21-31.06-19.21-51.92v-632.92c0-21.81 6.4-39.35 19.21-52.63 12.8-13.27 29.64-19.91 50.51-19.91 21.82 0 39.37 6.64 52.65 19.91 13.28 13.28 19.92 30.82 19.92 52.63v632.92c0 20.86-6.64 38.17-19.92 51.92-13.28 13.75-30.83 20.62-52.65 20.62zm54.08-339.93v-128.01h499.44v128.01h-499.44zm1181.03 345.62c-71.14 0-133.99-16.83-188.53-50.49-54.55-33.66-97.48-80.13-128.78-139.39-31.31-59.26-46.96-127.29-46.96-204.1 0-77.75 16.83-146.26 50.51-205.52 33.69-59.26 79.93-105.72 138.74-139.39 58.82-33.66 126.64-50.49 203.49-50.49 75.88 0 143.24 16.83 202.05 50.49 58.81 33.67 105.06 80.13 138.74 139.39 33.68 59.26 50.51 127.77 50.51 205.52h-83.96c0 76.81-14.46 144.84-43.4 204.1-28.93 59.26-68.53 105.73-118.81 139.39-50.27 33.66-108.14 50.49-173.6 50.49zm25.61 317.17c-67.35 0-130.43-13.27-189.24-39.82-58.82-26.55-108.62-65.43-149.41-116.63-12.34-16.12-16.85-32.71-13.53-49.78 3.33-17.07 12.58-30.82 27.76-41.25 17.07-11.38 34.85-15.17 53.35-11.38 18.5 3.8 33.45 13.28 44.83 28.45 25.61 32.24 57.87 57.37 96.76 75.38 38.89 18.02 83 27.03 132.34 27.03 45.53 0 87.5-10.91 125.92-32.72s69.01-54.05 91.78-96.71c22.77-42.67 34.15-94.82 34.15-156.46v-201.96l46.96-125.17 92.49 29.87v307.22c0 74.91-16.59 142.94-49.8 204.1-33.2 61.16-79.45 109.75-138.73 145.78-59.3 36.04-127.83 54.05-205.63 54.05zm2.86-445.18c49.32 0 92.96-11.38 130.9-34.13 37.95-22.76 67.6-54.05 88.93-93.87 21.35-39.83 32.02-85.82 32.02-137.97 0-52.15-10.67-98.37-32.02-138.67-21.33-40.3-50.98-71.83-88.93-94.59-37.94-22.75-81.58-34.13-130.9-34.13-49.34 0-92.98 11.38-130.91 34.13-37.95 22.76-67.84 54.29-89.66 94.59-21.81 40.3-32.72 86.52-32.72 138.67 0 52.15 10.91 98.14 32.72 137.97 21.82 39.82 51.71 71.11 89.66 93.87 37.93 22.75 81.57 34.13 130.91 34.13zm1679.06 122.32c-20.87 0-38.18-6.87-51.94-20.62-13.75-13.75-20.63-31.06-20.63-51.92v-632.92c0-21.81 6.88-39.35 20.63-52.63 13.76-13.27 31.07-19.91 51.94-19.91 21.82 0 38.9 6.64 51.23 19.91 12.33 13.28 18.5 30.82 18.5 52.63v632.92c0 20.86-6.17 38.17-18.5 51.92s-29.41 20.62-51.23 20.62zm-584.83 0c-20.87 0-37.71-6.87-50.51-20.62-12.81-13.75-19.21-31.06-19.21-51.92v-632.92c0-21.81 6.4-39.35 19.21-52.63 12.8-13.27 29.64-19.91 50.51-19.91 21.82 0 39.37 6.64 52.65 19.91 13.28 13.28 19.92 30.82 19.92 52.63v632.92c0 20.86-6.64 38.17-19.92 51.92-13.28 13.75-30.83 20.62-52.65 20.62zm54.08-339.93v-128.01h499.44v128.01h-499.44zm1181.03 345.62c-69.25 0-131.15-17.07-185.69-51.2-54.55-34.14-97.95-81.07-130.2-140.81-32.26-59.74-48.38-127.06-48.38-201.97 0-75.85 17.32-143.41 51.94-202.68 34.63-59.26 81.58-106.19 140.86-140.8 59.3-34.61 125.94-51.92 199.94-51.92 74.94 0 141.58 17.31 199.92 51.92 58.33 34.61 104.82 81.78 139.45 141.52 34.63 59.73 51.93 127.05 51.93 201.96h-55.49c0 74.91-15.89 142-47.67 201.26-31.78 59.26-74.94 106.2-129.49 140.81-54.55 34.6-116.92 51.91-187.12 51.91zm29.89-128.01c47.43 0 90.12-11.61 128.06-34.84 37.94-23.24 67.83-55 89.65-95.3 21.81-40.3 32.72-85.57 32.72-135.83 0-51.2-10.91-96.95-32.72-137.25-21.82-40.3-51.47-72.06-88.94-95.29-37.47-23.23-80.39-34.85-128.77-34.85-48.39 0-91.79 11.62-130.2 34.85-38.42 23.23-68.78 54.75-91.07 94.58-22.29 39.82-33.44 85.81-33.44 137.96 0 50.26 11.15 95.53 33.44 135.83 22.29 40.3 52.41 72.06 90.36 95.3 37.94 23.23 81.57 34.84 130.91 34.84zm318.73 123.74c-21.81 0-39.6-6.87-53.35-20.62-13.76-13.75-20.63-31.05-20.63-51.91V2363l27.03-150.76 118.1 51.2v317.18c0 20.86-6.64 38.16-19.92 51.91-13.28 13.75-30.35 20.62-51.23 20.62zm1361.76 0c-20.87 0-38.19-6.87-51.93-20.62-13.76-13.75-20.64-31.05-20.64-51.91v-349.89c0-54.05-9.96-98.14-29.89-132.27-19.92-34.14-46.71-59.5-80.39-76.1-33.68-16.59-72.34-24.89-115.97-24.89-39.84 0-75.89 8.06-108.15 24.18-32.25 16.12-57.86 37.69-76.83 64.72-18.98 27.02-28.46 58.07-28.46 93.16h-89.64c0-59.74 14.46-113.08 43.4-160.01 28.93-46.94 68.53-84.16 118.81-111.65 50.27-27.5 106.72-41.25 169.33-41.25 65.46 0 124.03 13.99 175.74 41.96 51.69 27.97 92.49 68.98 122.36 123.03 29.89 54.04 44.83 120.42 44.83 199.12v349.89c0 20.86-6.88 38.16-20.64 51.91-13.75 13.75-31.06 20.62-51.93 20.62zm-584.84 0c-20.87 0-38.17-6.87-51.93-20.62-13.76-13.75-20.63-31.05-20.63-51.91v-634.35c0-21.81 6.87-39.35 20.63-52.63 13.76-13.27 31.06-19.91 51.93-19.91 21.82 0 39.37 6.64 52.66 19.91 13.27 13.28 19.92 30.82 19.92 52.63v634.35c0 20.86-6.65 38.16-19.92 51.91-13.29 13.75-30.84 20.62-52.66 20.62zm970.45 331.4c-20.87 0-38.17-6.88-51.93-20.63-13.76-13.74-20.63-31.05-20.63-51.91v-648.57c.95-74.91 18.73-142.46 53.36-202.68 34.62-60.21 81.34-107.38 140.16-141.51 58.82-34.14 124.75-51.21 197.79-51.21 74.94 0 141.82 17.31 200.63 51.92 58.82 34.61 105.54 81.54 140.16 140.8 34.63 59.27 51.94 126.83 51.94 202.68 0 74.91-15.89 142.23-47.66 201.97-31.79 59.74-75.19 106.67-130.2 140.81-55.03 34.13-117.17 51.2-186.41 51.2-55.97 0-107.44-11.62-154.39-34.85-46.96-23.23-87.04-54.76-120.24-94.58v384.02c0 20.86-6.88 38.17-20.63 51.91-13.76 13.75-31.08 20.63-51.95 20.63zm318.75-455.14c48.38 0 91.54-11.61 129.49-34.84 37.94-23.24 68.06-55 90.35-95.3 22.3-40.3 33.44-85.57 33.44-135.83 0-51.2-11.14-96.95-33.44-137.25-22.29-40.3-52.41-72.06-90.35-95.29-37.95-23.23-81.11-34.85-129.49-34.85-47.43 0-90.59 11.62-129.49 34.85-38.9 23.23-69.01 54.75-90.36 94.58-21.34 39.82-32.02 85.81-32.02 137.96 0 50.26 10.68 95.77 32.02 136.54 21.35 40.78 51.23 72.54 89.65 95.3 38.42 22.75 81.82 34.13 130.2 34.13zm933.45 128.01c-69.25 0-131.15-17.07-185.69-51.2-54.55-34.14-97.95-81.07-130.2-140.81-32.26-59.74-48.38-127.06-48.38-201.97 0-75.85 17.32-143.41 51.94-202.68 34.63-59.26 81.58-106.19 140.86-140.8 59.3-34.61 125.94-51.92 199.94-51.92 74.94 0 141.58 17.31 199.92 51.92 58.33 34.61 104.82 81.78 139.45 141.52 34.63 59.73 51.93 127.05 51.93 201.96h-55.49c0 74.91-15.89 142-47.67 201.26-31.78 59.26-74.94 106.2-129.49 140.81-54.55 34.6-116.92 51.91-187.12 51.91zm29.89-128.01c47.43 0 90.12-11.61 128.06-34.84 37.94-23.24 67.83-55 89.65-95.3 21.81-40.3 32.72-85.57 32.72-135.83 0-51.2-10.91-96.95-32.72-137.25-21.82-40.3-51.47-72.06-88.94-95.29-37.47-23.23-80.39-34.85-128.77-34.85-48.39 0-91.79 11.62-130.2 34.85-38.42 23.23-68.78 54.75-91.07 94.58-22.29 39.82-33.44 85.81-33.44 137.96 0 50.26 11.15 95.53 33.44 135.83 22.29 40.3 52.41 72.06 90.36 95.3 37.94 23.23 81.57 34.84 130.91 34.84zm318.73 123.74c-21.81 0-39.6-6.87-53.35-20.62-13.76-13.75-20.63-31.05-20.63-51.91V2363l27.03-150.76 118.1 51.2v317.18c0 20.86-6.64 38.16-19.92 51.91-13.28 13.75-30.35 20.62-51.23 20.62zm553.53 9.96c-45.54 0-87.51-4.74-125.93-14.22-38.42-9.49-73.05-22.52-103.87-39.12-30.84-16.59-57.64-34.84-80.4-54.76-15.19-14.22-22.77-31.05-22.77-50.49s8.06-35.32 24.19-47.65c14.23-11.37 31.55-16.35 51.94-14.93 20.39 1.42 37.7 8.77 51.94 22.05 22.76 19.91 51.22 36.74 85.37 50.49 34.15 13.75 73.52 20.62 118.1 20.62 52.19 0 93.68-11.14 124.52-33.42 30.82-22.29 46.24-50.97 46.24-86.05 0-31.29-11.15-56.18-33.44-74.67-22.3-18.49-50.04-28.21-83.24-29.16h-81.11c-20.87 0-38.42-5.69-52.64-17.07-14.24-11.38-21.35-25.12-21.35-41.24s7.11-29.4 21.35-39.83c14.22-10.43 31.77-15.64 52.64-15.64h79.69c31.3-1.9 54.78-12.33 70.43-31.29 15.65-18.97 23.48-42.67 23.48-71.12 0-31.29-13.28-55.94-39.84-73.96-26.56-18.01-64.98-27.02-115.26-27.02-40.79 0-77.79 5.69-110.99 17.07-33.21 11.37-60.71 27.97-82.53 49.78-15.18 15.17-31.54 23.46-49.09 24.89-17.55 1.42-34.39-4.03-50.52-16.36-12.33-9.48-17.78-23.23-16.36-41.25 1.42-18.01 9.25-34.61 23.48-49.78 30.35-33.18 71.14-60.21 122.37-81.07 51.23-20.86 104.82-31.29 160.8-31.29 57.86 0 109.09 9.96 153.67 29.87 44.59 19.91 79.68 46.46 105.29 79.65 25.63 33.18 38.43 69.69 38.43 109.51 0 33.19-8.77 62.35-26.33 87.48-17.55 25.12-40.79 44.56-69.72 58.31-28.94 13.75-60.95 20.62-96.05 20.62v-11.37c40.79 0 77.55 8.06 110.27 24.17 32.74 16.12 58.59 37.7 77.56 64.72 18.97 27.02 28.46 58.08 28.46 93.16 0 45.51-13.52 86.29-40.56 122.32-27.03 36.03-63.8 64.71-110.28 86.05-46.48 21.33-99.12 32-157.94 32zm811.08-5.69c-71.14 0-133.99-16.83-188.54-50.49-54.54-33.66-97.47-80.13-128.77-139.39-31.31-59.26-46.96-127.29-46.96-204.1 0-77.75 16.83-146.26 50.51-205.52 33.68-59.26 79.92-105.72 138.74-139.39 58.82-33.66 126.64-50.49 203.48-50.49 75.89 0 143.25 16.83 202.06 50.49 58.81 33.67 105.06 80.13 138.74 139.39 33.67 59.26 50.51 127.77 50.51 205.52h-83.96c0 76.81-14.46 144.84-43.4 204.1-28.93 59.26-68.53 105.73-118.81 139.39-50.27 33.66-108.14 50.49-173.6 50.49zm25.61 317.17c-67.35 0-130.43-13.27-189.24-39.82-58.82-26.55-108.62-65.43-149.41-116.63-12.34-16.12-16.85-32.71-13.53-49.78 3.32-17.07 12.58-30.82 27.75-41.25 17.08-11.38 34.86-15.17 53.36-11.38 18.5 3.8 33.44 13.28 44.83 28.45 25.61 32.24 57.87 57.37 96.75 75.38 38.9 18.02 83.01 27.03 132.34 27.03 45.53 0 87.51-10.91 125.93-32.72s69.01-54.05 91.78-96.71c22.77-42.67 34.15-94.82 34.15-156.46v-201.96l46.96-125.17 92.49 29.87v307.22c0 74.91-16.6 142.94-49.8 204.1-33.21 61.16-79.45 109.75-138.73 145.78-59.3 36.04-127.83 54.05-205.63 54.05zm2.85-445.18c49.33 0 92.97-11.38 130.91-34.13 37.95-22.76 67.59-54.05 88.93-93.87 21.35-39.83 32.02-85.82 32.02-137.97 0-52.15-10.67-98.37-32.02-138.67-21.34-40.3-50.98-71.83-88.93-94.59-37.94-22.75-81.58-34.13-130.91-34.13s-92.97 11.38-130.91 34.13c-37.94 22.76-67.83 54.29-89.65 94.59-21.82 40.3-32.72 86.52-32.72 138.67 0 52.15 10.9 98.14 32.72 137.97 21.82 39.82 51.71 71.11 89.65 93.87 37.94 22.75 81.58 34.13 130.91 34.13zm1262.15 122.32c-20.87 0-38.18-6.87-51.94-20.62-13.75-13.75-20.63-31.06-20.63-51.92v-632.92c0-21.81 6.88-39.35 20.63-52.63 13.76-13.27 31.07-19.91 51.94-19.91 21.82 0 38.89 6.64 51.23 19.91 12.33 13.28 18.5 30.82 18.5 52.63v632.92c0 20.86-6.17 38.17-18.5 51.92-12.34 13.75-29.41 20.62-51.23 20.62zm-584.83 0c-20.87 0-37.71-6.87-50.51-20.62-12.81-13.75-19.21-31.06-19.21-51.92v-632.92c0-21.81 6.4-39.35 19.21-52.63 12.8-13.27 29.64-19.91 50.51-19.91 21.82 0 39.37 6.64 52.64 19.91 13.29 13.28 19.93 30.82 19.93 52.63v632.92c0 20.86-6.64 38.17-19.93 51.92-13.27 13.75-30.82 20.62-52.64 20.62zm54.08-339.93v-128.01h499.44v128.01h-499.44zm1183.88 347.04c-65.46 0-124.03-13.98-175.74-41.96-51.69-27.97-92.49-68.98-122.37-123.03-29.88-54.04-44.82-120.42-44.82-199.12v-349.88c0-20.86 6.88-38.17 20.64-51.92 13.74-13.75 31.06-20.62 51.93-20.62s38.18 6.87 51.93 20.62c13.76 13.75 20.64 31.06 20.64 51.92v349.88c0 53.1 9.96 96.96 29.88 131.57 19.93 34.6 46.96 60.21 81.11 76.8 34.15 16.59 72.57 24.89 115.26 24.89 40.78 0 77.07-8.06 108.86-24.18 31.77-16.12 57.15-37.93 76.12-65.42 18.97-27.5 28.46-58.32 28.46-92.45h89.64c0 58.78-14.46 111.88-43.4 159.29-28.93 47.41-68.3 84.87-118.1 112.36-49.8 27.5-106.48 41.25-170.04 41.25zm314.47-7.11c-20.87 0-38.18-6.87-51.94-20.62-13.75-13.75-20.63-31.06-20.63-51.92v-634.34c0-21.81 6.88-39.35 20.63-52.63 13.76-13.27 31.07-19.91 51.94-19.91 21.82 0 39.36 6.64 52.65 19.91 13.28 13.28 19.92 30.82 19.92 52.63v634.34c0 20.86-6.64 38.17-19.92 51.92-13.29 13.75-30.83 20.62-52.65 20.62zm960.49-17.07c-12.33 11.38-29.64 16.83-51.94 16.36-22.29-.48-39.6-6.88-51.94-19.2l-345.77-371.22 325.86-364.11c12.32-13.28 29.64-20.86 51.93-22.76 22.29-1.89 39.61 2.85 51.94 14.22 14.23 13.28 22.29 28.21 24.19 44.81 1.89 16.59-3.32 31.53-15.65 44.8l-257.56 275.93 273.21 292.99c12.33 12.33 18.49 26.79 18.49 43.38 0 16.59-7.58 31.53-22.76 44.8zm-563.48 18.49c-20.87 0-37.48-6.87-49.81-20.62-12.33-13.75-18.5-31.05-18.5-51.91v-634.35c0-21.81 6.17-39.35 18.5-52.63 12.33-13.27 28.94-19.91 49.81-19.91 21.82 0 39.59 6.64 53.35 19.91 13.76 13.28 20.64 30.82 20.64 52.63v237.52h182.13v133.7h-182.13v263.13c0 20.86-6.88 38.16-20.64 51.91-13.76 13.75-31.53 20.62-53.35 20.62zM6605.51 4951.59c-12.34 0-22.53-4.03-30.6-12.09-8.06-8.06-12.09-18.25-12.09-30.58V3883.44c0-12.32 4.03-22.52 12.09-30.58 8.07-8.06 18.26-12.09 30.6-12.09h684.44c12.32 0 22.53 4.03 30.58 12.09 8.07 8.06 12.1 18.73 12.1 32.01 0 10.43-4.03 19.91-12.1 28.44-8.05 8.53-18.26 12.8-30.58 12.8H6648.2v426.69h470.99c13.28 0 23.71 4.03 31.3 12.09 7.6 8.06 11.39 18.25 11.39 30.58 0 13.28-3.79 23.94-11.39 32-7.59 8.06-18.02 12.09-31.3 12.09H6648.2v426.69h641.75c12.32 0 22.53 4.03 30.58 12.09 8.07 8.06 12.1 18.25 12.1 30.58 0 12.33-4.03 22.52-12.1 30.58-8.05 8.06-18.26 12.09-30.58 12.09h-684.44zm1186.74 1.42c-18.03 0-31.31-9.95-39.85-29.87l-324.43-694.08c-3.79-10.43-3.79-20.62 0-30.58 3.79-9.95 10.91-17.3 21.35-22.04 10.43-4.74 20.63-5.22 30.58-1.43 9.97 3.8 17.32 10.91 22.06 21.34l318.75 688.39h-52.66l313.06-689.81c4.74-10.43 12.56-17.55 23.47-21.34 10.91-3.79 21.59-3.32 32.02 1.42 10.44 4.75 17.78 12.09 22.05 22.05s4.03 20.15-.71 30.58l-320.16 695.5c-9.49 19.92-24.66 29.87-45.53 29.87zm840.96 5.69c-74.94 0-141.59-16.83-199.92-50.49-58.34-33.66-104.11-80.36-137.32-140.1-33.2-59.73-49.8-128-49.8-204.81 0-77.75 15.65-146.26 46.95-205.52 31.31-59.26 74.48-105.96 129.49-140.1 55.03-34.13 118.11-51.2 189.26-51.2 70.2 0 132.33 16.36 186.4 49.07 54.08 32.71 96.29 77.75 126.65 135.12 30.35 57.36 45.53 123.5 45.53 198.41 0 12.33-3.79 22.04-11.38 29.16-7.6 7.11-17.55 10.66-29.89 10.66h-626.09v-73.96h648.86l-62.61 46.94c1.89-61.63-8.54-116.15-31.3-163.56-22.77-47.41-55.27-84.63-97.47-111.66-42.22-27.02-91.79-40.53-148.7-40.53-54.08 0-102.22 13.51-144.43 40.53-42.22 27.03-75.42 64.25-99.61 111.66-24.18 47.41-36.28 102.4-36.28 164.98 0 61.64 12.81 116.16 38.42 163.57s61.19 84.62 106.72 111.65c45.53 27.02 97.71 40.53 156.52 40.53 36.99 0 74.23-6.4 111.7-19.2 37.48-12.8 67.12-29.63 88.94-50.49 7.58-7.59 16.84-11.62 27.74-12.09 10.92-.47 20.16 2.61 27.75 9.25 10.44 8.53 15.89 18.01 16.36 28.44.48 10.43-4.03 19.91-13.51 28.45-30.36 27.5-69.97 50.25-118.82 68.27-48.85 18.01-95.57 27.02-140.16 27.02zm1195.27-7.11c-12.33 0-22.52-4.27-30.58-12.8-8.07-8.53-12.1-18.49-12.1-29.87v-382.6c0-62.58-12.09-114.26-36.29-155.03-24.19-40.77-57.15-71.35-98.89-91.74-41.74-20.38-88.23-30.58-139.45-30.58-50.28 0-95.82 9.96-136.61 29.87-40.78 19.91-73.28 46.7-97.47 80.36-24.19 33.66-36.29 71.83-36.29 114.5h-71.14c3.79-58.79 21.34-111.65 52.65-158.59s72.1-83.91 122.37-110.94c50.28-27.02 105.78-40.53 166.49-40.53 69.25 0 130.91 13.98 184.98 41.95 54.07 27.98 96.76 68.75 128.07 122.32 31.3 53.57 46.95 119.71 46.95 198.41v382.6c0 11.38-4.26 21.34-12.81 29.87-8.53 8.53-18.49 12.8-29.88 12.8zm-630.36 0c-12.33 0-22.53-4.03-30.59-12.09-8.06-8.06-12.1-18.25-12.1-30.58v-692.66c0-12.33 4.04-22.52 12.1-30.58 8.06-8.06 18.26-12.09 30.59-12.09 13.28 0 23.71 4.03 31.31 12.09 7.58 8.06 11.37 18.25 11.37 30.58v692.66c0 12.33-3.79 22.52-11.37 30.58-7.6 8.06-18.03 12.09-31.31 12.09zm1233.69 0c-52.17-.95-98.65-13.04-139.44-36.27-40.8-23.23-72.57-55.47-95.34-96.72-22.76-41.24-34.15-87.94-34.15-140.09V3970.2c0-12.32 3.79-22.75 11.39-31.29 7.58-8.53 18.5-12.8 32.72-12.8 12.34 0 22.53 4.27 30.6 12.8 8.06 8.54 12.09 18.97 12.09 31.29v708.31c0 54.05 17.08 98.61 51.22 133.69 34.16 35.09 78.27 52.63 132.33 52.63h31.32c12.32 0 22.76 4.03 31.3 12.09 8.54 8.06 12.81 18.25 12.81 30.58 0 13.27-4.03 23.94-12.1 32-8.06 8.06-18.74 12.09-32.01 12.09h-32.74zm-379.92-672.75c-10.43 0-19.45-3.55-27.04-10.67-7.58-7.11-11.38-15.88-11.38-26.31 0-12.32 3.8-22.04 11.38-29.15 7.59-7.12 16.61-10.67 27.04-10.67h385.62c10.43 0 19.45 3.55 27.04 10.67 7.58 7.11 11.37 16.83 11.37 29.15 0 10.43-3.79 19.2-11.37 26.31-7.59 7.12-16.61 10.67-27.04 10.67h-385.62zm604.76 327.13c-11.39 0-21.35-4.03-29.89-12.09-8.53-8.06-12.8-18.25-12.8-30.58 0-13.27 4.27-23.94 12.8-32 8.54-8.06 18.5-12.09 29.89-12.09h345.77c12.33 0 22.76 4.03 31.31 12.09 8.53 8.06 12.8 18.73 12.8 32 0 12.33-4.27 22.52-12.8 30.58-8.55 8.06-18.98 12.09-31.31 12.09h-345.77zM11598.63 4960.12c-76.83 0-145.13-17.3-204.9-51.91-59.77-34.61-106.96-82.02-141.58-142.23-34.63-60.21-51.94-127.77-51.94-202.68 0-75.85 17.55-143.65 52.65-203.39 35.1-59.73 82.53-107.14 142.29-142.23 59.77-35.08 127.12-52.62 202.06-52.62 75.9 0 143.96 17.3 204.2 51.91 60.23 34.61 107.66 82.02 142.29 142.23 34.63 60.21 51.93 128.25 51.93 204.1l-35.56 56.89c0 63.53-15.9 120.9-47.67 172.1-31.79 51.21-74.95 91.98-129.49 122.32-54.55 30.34-115.98 45.51-184.28 45.51zm-1.42-79.64c60.71 0 114.55-13.99 161.51-41.96 46.96-27.97 83.95-66.14 110.99-114.5 27.03-48.36 40.56-101.93 40.56-160.72 0-60.68-13.76-114.73-41.27-162.14-27.52-47.41-64.75-85.34-111.7-113.78-46.97-28.45-99.85-42.67-158.67-42.67-57.86 0-110.75 13.98-158.65 41.95-47.91 27.98-85.62 65.9-113.13 113.79-27.51 47.88-41.26 102.17-41.26 162.85 0 59.74 13.75 113.55 41.26 161.43 27.51 47.89 64.98 85.82 112.41 113.79 47.43 27.97 100.09 41.96 157.95 41.96zm355.73 71.11c-12.32 0-22.53-4.03-30.58-12.09-8.06-8.06-12.09-18.25-12.09-30.58v-260.28l27.03-85.34h58.33v345.62c0 12.33-3.79 22.52-11.37 30.58-7.59 8.06-18.03 12.09-31.32 12.09zm490.93 8.53c-51.24 0-98.43-8.06-141.59-24.18-43.17-16.11-77.78-39.11-103.87-68.98-26.1-29.87-39.13-66.13-39.13-108.8 0-32.24 8.29-62.35 24.9-90.32 16.6-27.97 45.29-53.81 86.09-77.51 40.79-23.71 98.17-44.1 172.17-61.16 62.62-15.17 106.49-35.32 131.63-60.45 25.13-25.13 37.7-56.18 37.7-93.16 0-36.03-13.28-66.85-39.84-92.45-26.57-25.6-68.78-38.4-126.64-38.4-43.64 0-82.53 7.82-116.68 23.46-34.16 15.65-63.09 38.64-86.8 68.99-6.65 9.48-15.42 15.17-26.33 17.06-10.91 1.9-21.11.48-30.59-4.26-12.34-6.64-19.45-15.41-21.35-26.32-1.89-10.9.48-21.09 7.11-30.57 27.52-38.88 63.56-69.93 108.15-93.17 44.59-23.23 99.14-34.84 163.64-34.84 52.18 0 97.23 8.29 135.18 24.89 37.95 16.59 67.35 40.77 88.23 72.54 20.87 31.76 31.3 70.87 31.3 117.34 0 45.51-16.61 87.94-49.8 127.29-33.21 39.35-92.97 68.98-179.29 88.9-85.38 18.96-143.96 41-175.74 66.13-31.78 25.13-47.67 56.18-47.67 93.16 0 41.72 15.65 73.01 46.96 93.87 31.3 20.86 80.63 31.3 147.99 31.3 47.43 0 90.83-6.64 130.19-19.92 39.37-13.27 72.34-36.03 98.9-68.27 7.59-8.53 16.6-13.75 27.03-15.64 10.44-1.9 20.4.47 29.89 7.11 10.43 7.58 16.36 16.83 17.78 27.73 1.42 10.91-1.66 21.1-9.24 30.58-32.26 37.93-75.66 67.09-130.2 87.47-54.55 20.39-107.91 30.58-160.08 30.58zm836.69-1.42c-74.94 0-141.59-16.83-199.92-50.49-58.34-33.66-104.11-80.36-137.32-140.1-33.2-59.73-49.8-128-49.8-204.81 0-77.75 15.65-146.26 46.95-205.52 31.31-59.26 74.48-105.96 129.49-140.1 55.03-34.13 118.11-51.2 189.26-51.2 70.2 0 132.33 16.36 186.4 49.07 54.08 32.71 96.29 77.75 126.65 135.12 30.35 57.36 45.53 123.5 45.53 198.41 0 12.33-3.79 22.04-11.38 29.16-7.6 7.11-17.55 10.66-29.89 10.66h-626.09v-73.96h648.86l-62.61 46.94c1.89-61.63-8.54-116.15-31.3-163.56-22.77-47.41-55.27-84.63-97.47-111.66-42.22-27.02-91.79-40.53-148.7-40.53-54.08 0-102.22 13.51-144.43 40.53-42.22 27.03-75.42 64.25-99.61 111.66-24.18 47.41-36.28 102.4-36.28 164.98 0 61.64 12.81 116.16 38.42 163.57s61.19 84.62 106.72 111.65c45.53 27.02 97.71 40.53 156.52 40.53 36.99 0 74.23-6.4 111.7-19.2 37.48-12.8 67.12-29.63 88.94-50.49 7.58-7.59 16.84-11.62 27.74-12.09 10.92-.47 20.16 2.61 27.75 9.25 10.44 8.53 15.89 18.01 16.36 28.44.48 10.43-4.03 19.91-13.52 28.45-30.35 27.5-69.96 50.25-118.81 68.27-48.85 18.01-95.57 27.02-140.16 27.02zm1195.27-7.11c-13.28 0-23.71-4.03-31.3-12.09-7.59-8.06-11.38-18.25-11.38-30.58v-692.66c0-12.33 3.79-22.52 11.38-30.58 7.59-8.06 18.02-12.09 31.3-12.09 12.34 0 22.53 4.03 30.59 12.09 8.07 8.06 12.1 18.25 12.1 30.58v692.66c0 12.33-4.03 22.52-12.1 30.58-8.06 8.06-18.25 12.09-30.59 12.09zm-628.94 0c-13.28 0-23.95-4.03-32.01-12.09-8.06-8.06-12.1-18.25-12.1-30.58v-692.66c0-12.33 4.04-22.52 12.1-30.58 8.06-8.06 18.73-12.09 32.01-12.09 12.33 0 22.29 4.03 29.89 12.09 7.58 8.06 11.37 18.25 11.37 30.58v692.66c0 12.33-3.79 22.52-11.37 30.58-7.6 8.06-17.56 12.09-29.89 12.09zm22.77-345.62v-76.8h599.06v76.8h-599.06zm1976.47 345.62c-12.33 0-22.53-4.03-30.59-12.09-8.07-8.06-12.1-18.25-12.1-30.58v-411.04c0-73.02-19.21-132.75-57.62-179.21-38.43-46.47-88.46-69.7-150.13-69.7-65.45 0-118.82 21.58-160.07 64.72-41.27 43.14-60.96 101.22-59.06 174.23h-85.38c1.9-65.43 16.13-122.32 42.69-170.68 26.56-48.35 62.61-86.04 108.15-113.07 45.53-27.02 96.75-40.53 153.67-40.53 57.86 0 108.62 14.22 152.26 42.66 43.64 28.45 78.02 67.8 103.16 118.06 25.14 50.25 37.71 108.09 37.71 173.52v411.04c0 12.33-3.79 22.52-11.38 30.58-7.6 8.06-18.03 12.09-31.31 12.09zm-1028.78 0c-12.34 0-22.54-4.03-30.6-12.09-8.06-8.06-12.09-18.25-12.09-30.58v-692.66c0-13.27 4.03-23.7 12.09-31.29 8.06-7.59 18.26-11.38 30.6-11.38 13.27 0 23.71 3.79 31.3 11.38 7.58 7.59 11.37 18.02 11.37 31.29v692.66c0 12.33-3.79 22.52-11.37 30.58-7.59 8.06-18.03 12.09-31.3 12.09zm516.52 0c-12.34 0-22.53-4.03-30.59-12.09-8.07-8.06-12.1-18.25-12.1-30.58v-411.04c0-73.02-19.21-132.75-57.63-179.21-38.41-46.47-88.46-69.7-150.11-69.7-65.46 0-119.06 20.86-160.8 62.59-41.74 41.72-62.62 95.76-62.62 162.14h-71.14c2.84-60.69 17.31-114.26 43.4-160.72 26.09-46.46 60.95-82.97 104.59-109.52 43.64-26.55 92.49-39.82 146.57-39.82 57.86 0 108.61 14.22 152.24 42.66 43.64 28.45 78.03 67.8 103.17 118.06 25.14 50.25 37.71 108.09 37.71 173.52v411.04c0 12.33-3.79 22.52-11.39 30.58-7.58 8.06-18.01 12.09-31.3 12.09zm1141.2 8.53c-74 0-140.16-17.54-198.5-52.62s-104.35-82.49-138.03-142.23c-33.67-59.74-50.51-127.06-50.51-201.97 0-75.85 15.65-143.65 46.95-203.39 31.31-59.73 74.48-106.91 129.49-141.52 55.03-34.6 118.11-51.91 189.26-51.91 60.71 0 116.2 11.62 166.48 34.85 50.28 23.23 93.92 58.55 130.91 105.96 7.6 9.48 10.44 19.44 8.54 29.87-1.89 10.43-8.07 18.96-18.5 25.6-8.54 6.64-18.02 9.24-28.45 7.82-10.44-1.42-19.45-6.87-27.05-16.36-60.7-72.06-138.02-108.09-231.93-108.09-55.97 0-105.06 13.75-147.28 41.25-42.21 27.49-74.94 64.95-98.18 112.36-23.24 47.41-34.86 101.93-34.86 163.56 0 59.74 12.81 113.55 38.42 161.43 25.61 47.89 60.95 85.82 106.01 113.79 45.06 27.97 97.47 41.96 157.23 41.96 38.9 0 75.65-5.69 110.28-17.07 34.62-11.38 64.75-28.92 90.36-52.63 8.53-7.58 18.02-11.85 28.45-12.8 10.44-.95 19.45 2.37 27.04 9.96 9.49 8.53 14.47 18.25 14.94 29.15.48 10.91-3.55 20.15-12.09 27.74-69.26 63.53-155.58 95.29-258.98 95.29zm1570.93-8.53c-12.33 0-22.53-4.03-30.59-12.09-8.07-8.06-12.1-18.25-12.1-30.58v-411.04c0-73.02-19.21-132.75-57.62-179.21-38.43-46.47-88.46-69.7-150.13-69.7-65.45 0-118.82 21.58-160.08 64.72-41.26 43.14-60.95 101.22-59.05 174.23h-85.38c1.9-65.43 16.13-122.32 42.69-170.68 26.56-48.35 62.61-86.04 108.15-113.07 45.53-27.02 96.75-40.53 153.67-40.53 57.86 0 108.62 14.22 152.26 42.66 43.64 28.45 78.02 67.8 103.16 118.06 25.13 50.25 37.71 108.09 37.71 173.52v411.04c0 12.33-3.79 22.52-11.39 30.58-7.59 8.06-18.02 12.09-31.3 12.09zm-1028.79 0c-12.33 0-22.53-4.03-30.59-12.09-8.06-8.06-12.1-18.25-12.1-30.58v-692.66c0-13.27 4.04-23.7 12.1-31.29 8.06-7.59 18.26-11.38 30.59-11.38 13.28 0 23.71 3.79 31.31 11.38 7.58 7.59 11.37 18.02 11.37 31.29v692.66c0 12.33-3.79 22.52-11.37 30.58-7.6 8.06-18.03 12.09-31.31 12.09zm516.53 0c-12.34 0-22.53-4.03-30.6-12.09-8.06-8.06-12.09-18.25-12.09-30.58v-411.04c0-73.02-19.21-132.75-57.63-179.21-38.41-46.47-88.46-69.7-150.12-69.7-65.46 0-119.05 20.86-160.79 62.59-41.74 41.72-62.62 95.76-62.62 162.14h-71.14c2.84-60.69 17.31-114.26 43.4-160.72 26.09-46.46 60.95-82.97 104.59-109.52 43.64-26.55 92.49-39.82 146.56-39.82 57.87 0 108.61 14.22 152.25 42.66 43.64 28.45 78.03 67.8 103.17 118.06 25.14 50.25 37.71 108.09 37.71 173.52v411.04c0 12.33-3.79 22.52-11.39 30.58-7.58 8.06-18.02 12.09-31.3 12.09zm839.54 0c-12.34 0-22.53-4.03-30.59-12.09-8.07-8.06-12.1-18.25-12.1-30.58v-694.08c.95-12.33 5.21-22.28 12.81-29.87 7.58-7.59 17.54-11.38 29.88-11.38 13.28 0 23.71 3.79 31.3 11.38 7.59 7.59 11.38 18.02 11.38 31.29v288.73h315.9v14.22c48.37 0 90.83 9.01 127.35 27.02 36.53 18.02 65.22 42.67 86.09 73.96 20.87 31.29 31.3 67.33 31.3 108.1 0 43.62-10.43 82.26-31.3 115.92s-49.56 59.97-86.09 78.93c-36.52 18.97-78.98 28.45-127.35 28.45h-358.58zm42.68-76.8h315.9c47.43 0 85.85-12.09 115.25-36.27 29.42-24.18 44.11-60.92 44.11-110.23 0-50.26-14.69-87.24-44.11-110.94-29.4-23.71-67.82-35.56-115.25-35.56h-315.9v293zm156.53-318.6v-51.2h145.14c38.89 0 70.91-11.85 96.05-35.56 25.14-23.7 37.71-54.52 37.71-92.45 0-35.08-12.57-64.95-37.71-89.6-25.14-24.66-57.16-36.98-96.05-36.98h-341.51v-76.81h341.51c42.69 0 80.39 8.54 113.13 25.6 32.72 17.07 58.57 41.01 77.54 71.83 18.97 30.82 28.47 66.14 28.47 105.96 0 64.48-20.4 110.47-61.19 137.96-40.79 27.5-93.45 41.25-157.95 41.25h-145.14zm951.94 403.93c-75.88 0-143.95-17.3-204.19-51.91-60.24-34.61-107.67-82.02-142.3-142.23-34.62-60.21-51.93-127.77-51.93-202.68 0-75.85 17.31-143.89 51.93-204.1 34.63-60.21 82.06-107.62 142.3-142.23 60.24-34.61 128.31-51.91 204.19-51.91 75.9 0 143.72 17.3 203.48 51.91 59.77 34.61 106.96 82.02 141.59 142.23 34.62 60.21 51.93 128.25 51.93 204.1 0 74.91-17.55 142.47-52.64 202.68-35.1 60.21-82.3 107.62-141.59 142.23-59.28 34.61-126.87 51.91-202.77 51.91zm0-79.64c59.77 0 113.12-13.99 160.08-41.96 46.97-27.97 83.96-65.9 111-113.79 27.03-47.88 40.55-101.69 40.55-161.43 0-60.68-13.52-114.97-40.55-162.85-27.04-47.89-64.27-85.81-111.71-113.79-47.43-27.97-100.55-41.95-159.37-41.95-58.81 0-111.94 13.98-159.37 41.95-47.43 27.98-84.9 66.14-112.41 114.5-27.51 48.36-41.26 102.41-41.26 162.14 0 59.74 13.75 113.55 41.26 161.43 27.51 47.89 64.98 85.82 112.41 113.79 47.43 27.97 100.56 41.96 159.37 41.96z" class="fil0"/></g><g id="_2922168567104"><path d="M2546.59 5157.16c-4.08 0-7.73-2.77-8.9-6.85-1.45-5.55-36.18-137.13-5.98-221.59 26.7-74.84 21.3-94.53 3.65-159.74l-3.79-14.15c-19.99-74.26-3.5-182.21-.59-199.42-84.32-276.88-115.39-1279.65-116.7-1322.25-.15-5.1 3.79-9.33 8.9-9.48 5.25.44 9.33 3.79 9.48 8.9.29 10.5 32.53 1047.99 116.55 1319.47.44 1.32.59 2.92.29 4.38-.14 1.17-20.42 118.45-.14 193.73l3.79 14.15c18.38 67.69 24.66 90.45-4.08 170.68-28.16 79.06 6.13 209.33 6.42 210.65 1.31 4.96-1.61 9.92-6.57 11.23-.72.15-1.6.29-2.33.29z" class="fil1"/><path d="M2559.43 5483.5c-3.94 0-7.59-2.48-8.75-6.57-.73-2.33-16.78-59.66 34.13-212.4 45.08-135.23 45.37-235.16.73-314.37-27.13-48.29-18.82-82.86-9.19-122.98 5.84-24.51 12.54-52.22 12.54-88.4 0-92.63-55.72-177.97-56.3-178.84-2.63-3.94-1.75-9.19 1.75-12.11 505.32-421.74 1194.01-1465.35 1200.87-1475.86 2.77-4.23 8.46-5.4 12.69-2.62 4.23 2.77 5.4 8.46 2.63 12.69-6.86 10.5-691.47 1047.85-1198.4 1474.69 13.86 22.9 55 98.47 55 181.91 0 38.36-7 67.25-13.13 92.78-9.48 39.24-16.34 67.54 7.3 109.7 47.26 84.17 47.55 188.76.73 329.25-48.58 145.73-34.14 200.87-33.99 201.46 1.31 4.81-1.46 9.92-6.28 11.37-.58.15-1.46.3-2.33.3z" class="fil1"/><path d="M2423.32 5368.54c-3.64 0-7.15-2.19-8.61-5.84-1.89-4.96-46.68-124.28 0-250.18 32.97-89.28 32.24-111.89 29.33-195.91-1.03-31.08-2.34-69.59-2.34-122.69 0-162.21 58.94-222.46 83.88-240.7C1942.94 3966.5 1387.29 2695.6 1381.6 2682.91c-2.04-4.67.14-10.07 4.81-12.11 4.67-1.89 10.07.15 12.11 4.82 5.55 12.83 565.14 1292.34 1148.21 1872.79 2.19 2.19 3.07 5.11 2.63 8.17-.58 2.92-2.48 5.55-5.25 6.71-.73.44-84.03 42.46-84.03 230.78 0 52.67 1.31 91.18 2.33 122.11 2.92 84.75 3.79 110.28-30.48 202.91-44.21 119.48-.44 236.03 0 237.2 1.74 4.82-.59 10.07-5.26 11.96-1.01.14-2.18.29-3.35.29z" class="fil1"/><path d="M2675.69 5511.07h-.14c-5.11-.15-9.05-4.38-9.05-9.34.15-3.5 8.17-345.73 0-581.76-8.02-232.68-131.44-357.26-132.6-358.57-2.48-2.48-3.36-6.13-2.19-9.48 260.54-753.03 270.17-3045.22 270.17-3068.28 0-5.1 4.08-9.19 9.19-9.19 5.11 0 9.19 4.08 9.19 9.19-.15 23.05-9.63 2307.66-269.29 3068.86 22.31 24.21 126.48 148.06 134.06 366.73 8.17 236.62.14 579.43 0 582.93-.29 4.97-4.38 8.91-9.34 8.91z" class="fil1"/><path d="M2270.88 4603.11c-64.63 0-104.89-11.81-122.68-36.03-10.8-14.59-12.84-33.11-6.28-54.85 13.13-42.6 48.43-64.33 104.89-64.33 118.02 0 290.73 94.67 298.03 98.76a9.264 9.264 0 0 1 4.67 9.19 9.019 9.019 0 0 1-6.86 7.73c-1.6.58-156.82 39.53-271.77 39.53zm-24.07-136.68c-48.14 0-76.73 16.77-87.38 51.2-4.96 16.19-3.79 28.74 3.35 38.51 13.86 18.67 51.2 28.45 107.95 28.45 86.07 0 195.63-22.47 243.33-33.12-50.33-25.38-177.83-85.04-267.25-85.04z" class="fil1"/><path d="M2760.45 4580.5c-105.76 0-220.28-16.48-221.44-16.63-3.94-.58-7.01-3.64-7.74-7.58-.73-3.94 1.17-7.88 4.82-9.63 8.17-4.38 200.58-105.76 320.06-105.76 48.28 0 78.92 16.63 91.03 49.45 6.42 17.51 4.96 32.97-4.23 45.95-20.87 29.76-80.53 44.2-182.5 44.2zm-189.21-30.92c40.7 4.81 117 12.54 189.06 12.54 117.29 0 155.8-19.69 167.32-36.32 5.55-8.02 6.28-17.51 1.9-29.18-9.19-25.23-33.26-37.34-73.67-37.34-89.27 0-226.99 62.29-284.61 90.3z" class="fil1"/><path d="m840.39 2203.84 7.3-41.13 11.52-40.12 15.46-38.66 18.82-37.34 21.59-35.6 24.07-34.13 25.97-32.53 27.57-31.37 29.03-30.05 29.9-29.03 30.93-28.01 31.8-26.98 32.53-26.26 32.97-25.53 33.55-24.95 33.99-24.36 34.28-23.63 34.87-23.05 35.16-22.46 35.59-21.74 36.03-21.15 36.33-20.43 36.9-19.54 37.49-18.38 38.08-17.07 38.8-15.32 39.83-12.55 40.84-8.02h41.58l38.37 15.17 24.65 32.97 9.92 40.41 1.75 41.57-2.33 41.73-4.67 41.43-6.57 41.28L1787 1770l-8.03 40.99-8.31 41-8.46 40.84-8.31 40.85-8.32 40.99-8.17 40.85-7.73 40.99-7.44 41.14-7.15 41.13-6.56 41.29-6.13 41.28-5.69 41.29-5.11 41.42-4.52 41.43-4.08 41.58-3.65 41.57-3.21 41.58-2.77 41.72-2.19 41.72-2.04 41.58-1.61 41.72-1.46 41.72-1.31 41.72-1.31 41.72-1.46 41.73-1.75 41.72-2.33 41.72-3.36 41.57-4.96 41.43-7.44 41.14-11.38 40.12-18.96 36.9-31.8 26.41-40.7 5.84-40.41-9.78-37.93-17.21-35.89-21.45-34.13-23.92-33.12-25.53-32.09-26.55-31.37-27.57-30.63-28.3-30.05-28.89-29.61-29.61-29.03-29.9-28.45-30.5-28.01-31.07-27.28-31.5-26.84-31.95-26.11-32.53-25.53-33.12-24.65-33.7-23.64-34.42-22.31-35.16-21.16-36.03-19.69-36.77-17.65-37.78-15.47-38.8-12.83-39.68-9.63-40.55-5.98-41.29-1.9-41.72z" class="fil2 str0"/><path d="M1543.82 3097.21s-59.66 161.34-12.84 145.29c46.83-16.04 48.58-23.92 69.73-.87 21.15 23.05 41.72 7.73 54.41-21.44 12.69-29.18 9.05-30.2 52.23-35.16 43.18-4.96 48.29-28.74 26.26-53.83-22.03-25.09-108.24-66.08-108.24-66.08l-81.55 32.09z" class="fil2 str0"/><path d="m2895.97 2802.38 14.88 29.18 8.9 31.8 2.77 32.82-1.17 32.98-4.23 32.67-6.41 32.39-8.17 31.94-9.34 31.66-10.36 31.22-11.23 31.07-11.82 30.78-12.4 30.64-12.69 30.48-13.13 30.2-13.42 30.2-13.86 29.9-14 29.91-14.44 29.61-14.59 29.62-15.03 29.32-15.32 29.17-15.75 29.03-16.19 28.74-16.78 28.45-17.5 28.01-18.24 27.42-19.11 26.84-20.42 25.97-22.03 24.65-24.07 22.47-26.4 19.69-29.03 15.61-31.66 8.75-32.82 1.61-32.39-6.57-30.63-11.96-28.45-16.63-26.69-19.25-25.24-21.3-24.07-22.61-22.9-23.64-22.18-24.5-21.59-24.95-20.86-25.53-20.57-25.82-20.13-26.11-19.69-26.41-19.4-26.69-19.11-26.99-18.97-26.99-18.53-27.27-18.38-27.43-18.09-27.57-17.79-27.72-17.36-28.15-16.92-28.3-16.34-28.59-15.9-29.04-14.88-29.32-14.01-29.9-12.69-30.35-11.08-31.22-8.61-31.8-5.4-32.53-.29-32.82 5.25-32.53 13.13-30.2 19.4-26.55 24.95-21.59 27.71-17.8 29.47-14.58 30.93-11.82 31.36-9.92 31.95-8.46 32.09-7.29 32.39-6.42 32.53-5.69 32.53-4.96 32.68-4.38 32.82-4.08 32.82-3.65 32.83-3.21 32.82-2.92 32.82-2.77 32.97-2.19 32.97-1.89 32.97-1.61 32.96-1.16 32.97-.73 32.97-.15 32.97.58 32.97 1.32 32.97 2.33 32.67 3.8 32.54 5.39 32.09 7.59 31.22 10.65 29.76 14.15 26.55 19.55z" class="fil3 str0"/><path d="M2415.3 3694.29s-121.22 121.95-72.06 126.77c49.3 4.82 54.12-1.6 63.75 28.15 9.62 29.76 34.72 24.37 58.35 3.07 23.63-21.3 20.71-23.64 62.14-10.21 41.28 13.42 55.87-5.99 46.25-38.08-9.63-32.09-71.05-105.03-71.05-105.03l-87.38-4.67z" class="fil3 str0"/><path d="m2057.6 1653.01 10.07-47.71 10.06-47.7 15.91-45.95 16.04-46.1 21.59-43.61 21.59-43.77 26.99-40.55 26.84-40.7 31.81-36.91 31.8-36.91 36.17-32.67 36.18-32.68 39.97-27.87 39.97-27.86 43.18-22.61 43.19-22.61 45.65-17.07 45.66-17.07 47.41-11.23 47.42-11.09 48.43-5.25 48.43-5.1 48.72 1.02 48.72.88 48.29 6.99 48.14 7.15 46.98 12.99 46.97 13.13 44.93 18.82 44.93 18.81 42.3 24.22 42.16 24.36 38.95 29.47 38.81 29.32 34.86 34.14 34.87 33.99 30.34 38.22 30.34 38.07 25.24 41.72 25.38 41.58 19.84 44.49 19.84 44.49 14.15 46.68 14.15 46.68 8.17 48 8.32 48 2.04 48.72 2.04 48.72-3.94 48.58-4.08 48.57-10.07 47.56-10.06 47.71-15.9 46.09-16.05 46.1-21.59 43.62-21.59 43.62-26.84 40.7-26.99 40.55-31.8 37.05-31.8 36.91-36.18 32.68-36.18 32.53-39.97 27.86-39.97 28.01-43.18 22.61-43.04 22.61-45.65 17.07-45.66 17.07-47.56 11.09-47.41 11.23-48.44 5.1-48.43 5.25-48.72-1.02-48.72-.87-48.29-7.15-48.14-7-46.97-13.13-46.98-12.98-44.93-18.82-44.93-18.82-42.3-24.36-42.16-24.22-38.95-29.46-38.81-29.47-34.86-33.99-34.86-33.99-30.35-38.22-30.34-38.22-25.24-41.58-25.23-41.72-19.99-44.49-19.84-44.5-14.15-46.53-14.15-46.68-8.17-48-8.17-48.14-2.18-48.57-2.05-48.73 3.94-48.57z" class="fil4 str0"/><path d="M2745.28 2513.69s-121.23 121.96-72.07 126.77c49.31 4.82 54.12-1.6 63.75 28.16 9.63 29.76 34.72 24.36 58.35 3.06 23.64-21.3 20.72-23.63 62.15-10.21 41.28 13.42 55.87-5.98 46.24-38.07-9.63-32.1-71.04-105.04-71.04-105.04l-87.38-4.67z" class="fil4 str0"/><path d="m3274.24 2489.91 19.25-33.99 24.07-31.07 27.57-27.57 30.63-24.51 32.25-22.32 33.4-20.27 34.28-19.11 34.72-17.95 35.31-17.06 35.44-16.49 35.74-16.19 35.89-15.76 36.03-15.46 36.03-15.32 36.18-14.88 36.47-14.44 36.62-14 36.9-13.28 37.2-12.25 37.64-10.65 38.22-8.46 38.81-5.4 39.09-1.46 38.8 5.25 37.2 11.82 33.41 20.42 29.32 25.68 24.65 30.48 21.3 32.83 18.82 34.43 16.48 35.44 15.32 36.18 14.15 36.47 13.42 36.76 12.99 37.06 12.54 37.05 12.11 37.2 11.96 37.34 11.67 37.5 11.24 37.49 10.79 37.63 10.21 37.78 9.34 38.08 8.02 38.36 6.57 38.67 4.37 38.94 1.61 39.1-2.77 38.95-7.59 38.36-12.98 37.06-19.4 33.99-23.93 30.92-27.72 27.58-30.48 24.5-32.25 22.32-33.4 20.42-34.28 18.97-34.87 17.94-35.15 17.07-35.6 16.63-35.74 16.05-35.74 15.75-36.03 15.61-36.18 15.17-36.18 14.88-36.32 14.45-36.62 14-36.9 13.28-37.2 12.25-37.64 10.65-38.36 8.46-38.66 5.4-39.25 1.46-38.65-5.26-37.2-11.81-33.55-20.28-29.32-25.82-24.51-30.49-21.45-32.82-18.67-34.43-16.63-35.45-15.17-36.18-14.15-36.47-13.57-36.76-12.84-37.05-12.54-37.05-12.26-37.2-11.81-37.35-11.67-37.49-11.23-37.49-10.8-37.64-10.21-37.78-9.34-38.07-8.17-38.37-6.56-38.66-4.38-38.8-1.46-39.24 2.63-38.95 7.73-38.37z" class="fil5 str0"/><path d="M3575.62 3305.96s-168.34 35.16-129.83 66.37c38.51 31.22 46.1 28.45 37.78 58.65-8.31 30.19 15.61 39.38 47.12 34.72 31.51-4.82 30.34-8.32 57.48 25.53 27.13 33.99 50.03 25.67 59.66-6.42 9.63-31.95-1.46-126.77-1.46-126.77l-70.75-52.08z" class="fil5 str0"/></g></g></svg>